<svg style="height: 512px; width: 512px;" xmlns="http://www.w3.org/2000/svg" viewBox="0 0 512 512"><defs><linearGradient x1="0" x2="1" y1="1" y2="0" id="delapouite-server-rack-gradient-0"><stop offset="0%" stop-color="#1005fe" stop-opacity="1"></stop><stop offset="100%" stop-color="#ec0e0e" stop-opacity="1"></stop></linearGradient></defs><rect fill="url(#delapouite-server-rack-gradient-0)" height="512" width="512" rx="32" ry="32"></rect><g class="" style="" transform="translate(0,0)"><path d="M41 25v78h430V25H41zm254 23h18v32h-18V48zm121 0a16 16 0 0 1 16 16 16 16 0 0 1-16 16 16 16 0 0 1-16-16 16 16 0 0 1 16-16zM64 55h48v18H64V55zm80 0h48v18h-48V55zm80 0h48v18h-48V55zm-119 66v30h302v-30H105zm-64 48v78h430v-78H41zm254 23h18v32h-18v-32zm121 0a16 16 0 0 1 16 16 16 16 0 0 1-16 16 16 16 0 0 1-16-16 16 16 0 0 1 16-16zm-352 7h48v18H64v-18zm80 0h48v18h-48v-18zm80 0h48v18h-48v-18zm-119 66v30h302v-30H105zm-64 48v78h430v-78H41zm254 23h18v32h-18v-32zm121 0a16 16 0 0 1 16 16 16 16 0 0 1-16 16 16 16 0 0 1-16-16 16 16 0 0 1 16-16zm-352 7h48v18H64v-18zm80 0h48v18h-48v-18zm80 0h48v18h-48v-18zm13 66v30h38v-30h-38zM25 457v30h130.2l20-30H25zm171.8 0l-20 30h158.4l-20-30H196.8zm140 0l20 30H487v-30H336.8z" fill="#fff" fill-opacity="1" transform="translate(51.2, 51.2) scale(0.8, 0.8) rotate(0, 256, 256) skewX(0) skewY(0)"></path></g></svg>